<?xml version="1.0" encoding="utf-8"?>
<!-- Generator: Adobe Illustrator 16.0.0, SVG Export Plug-In . SVG Version: 6.00 Build 0)  -->
<!DOCTYPE svg PUBLIC "-//W3C//DTD SVG 1.1//EN" "http://www.w3.org/Graphics/SVG/1.1/DTD/svg11.dtd">
<svg version="1.1" xmlns="http://www.w3.org/2000/svg" xmlns:xlink="http://www.w3.org/1999/xlink" x="0px" y="0px" width="640px"
	 height="480px" viewBox="0 0 640 480" enable-background="new 0 0 640 480" xml:space="preserve">
<g id="Default">
	
		<rect x="19.678" y="88.046" fill="none" stroke="#000000" stroke-linecap="round" stroke-linejoin="round" width="592.095" height="303.908"/>
</g>
<g id="Layer_01">
	<g>
		<polygon fill="#FF0000" points="432.21,350.819 486.47,296.405 430.433,240.351 486.47,184.313 432.261,129.984 457.041,129.984 
			511.284,184.21 455.127,240.351 511.318,296.542 457.075,350.819 		"/>
		<polygon fill="#FF0000" points="393.688,240.351 447.744,186.313 423.46,186.313 369.404,240.351 423.46,294.44 447.744,294.44 		
			"/>
		<path fill="#FF0000" d="M177.998,129.984c8.255,0,16.509,0,24.746,0c18.132,18.115,36.265,36.214,54.38,54.329
			c-18.27,18.269-36.555,36.537-54.842,54.807c-0.324,0.324-0.512,0.77-0.512,1.248c0,0.461,0.188,0.905,0.512,1.23
			c18.287,18.285,36.572,36.572,54.859,54.857c-18.133,18.115-36.266,36.248-54.397,54.363c-8.203,0-16.406,0-24.609,0
			c18.081-18.064,36.162-36.145,54.226-54.209c-18.713-18.713-37.409-37.41-56.105-56.123
			c18.696-18.696,37.393-37.393,56.105-56.105C214.245,166.249,196.113,148.116,177.998,129.984z"/>
		<path fill="#FF0000" d="M290.176,187.116l-53.252,53.234l53.286,53.286l53.286-53.286L290.176,187.116z M264.712,240.351
			l25.498-25.48l25.516,25.48l-25.516,25.498L264.712,240.351z"/>
	</g>
	<path fill="#FF0000" d="M290.219,214.896l-25.498,25.48l25.498,25.498l25.516-25.498L290.219,214.896z M290.321,261.927
		l-21.533-21.551l21.517-21.516l1.76,1.76l-19.773,19.756l19.773,19.79L290.321,261.927z M294.713,257.517l-17.141-17.141
		l17.124-17.124l2.461,2.461l-14.663,14.663l14.68,14.697L294.713,257.517z M299.823,252.425l-12.065-12.049l12.031-12.014
		l2.461,2.461l-9.57,9.553l9.604,9.588L299.823,252.425z M304.916,247.331l-6.938-6.955l6.904-6.922l2.427,2.428l-4.478,4.494
		l4.512,4.529L304.916,247.331z M308.095,240.376l1.862-1.846l1.881,1.88l-1.863,1.846L308.095,240.376z"/>
	<path fill="#FF0000" d="M571.149,239.12c-37.375-37.375-74.768-74.751-112.143-112.109c-0.325-0.342-0.77-0.513-1.248-0.513
		c-9.963,0-19.927,0-29.907,0c-0.444,0-0.889,0.188-1.23,0.513c-18.286,18.27-36.572,36.555-54.858,54.842
		c-18.252-18.287-36.538-36.572-54.79-54.859c-0.684-0.684-1.812-0.684-2.478,0c-18.304,18.287-36.59,36.556-54.876,54.842
		c-18.32-18.286-36.606-36.555-54.909-54.842c-0.325-0.324-0.77-0.495-1.248-0.495c-9.946,0-19.893,0-29.839,0
		c-0.479,0-0.923,0.171-1.247,0.495c-37.41,37.376-74.803,74.752-112.213,112.127c-0.324,0.324-0.512,0.77-0.512,1.248
		c0,0.461,0.188,0.905,0.512,1.23c37.444,37.409,74.905,74.818,112.366,112.211c0.308,0.342,0.752,0.514,1.23,0.514
		c9.912,0,19.808,0,29.72,0c0.461,0,0.905-0.188,1.247-0.514c18.286-18.285,36.589-36.589,54.893-54.875
		c18.286,18.286,36.572,36.59,54.876,54.875c0.342,0.359,0.803,0.514,1.247,0.514s0.889-0.172,1.23-0.514
		c18.286-18.252,36.606-36.504,54.893-54.772c18.252,18.269,36.504,36.521,54.739,54.772c0.324,0.342,0.769,0.514,1.247,0.514
		c9.98,0,19.961,0,29.941,0c0.479,0,0.923-0.188,1.247-0.514c37.376-37.393,74.734-74.802,112.109-112.211
		C571.816,240.915,571.816,239.804,571.149,239.12z M412.386,146.083l38.213,38.213h-4.922l-35.752-35.752L412.386,146.083z
		 M447.744,186.313l-54.056,54.038l54.056,54.09H423.46l-54.056-54.09l54.056-54.038H447.744z M407.275,151.192l33.12,33.104h-4.939
		l-30.642-30.643L407.275,151.192z M402.183,156.286l27.993,28.01h-4.922l-25.532-25.532L402.183,156.286z M386.904,171.599
		l12.681,12.715l-53.389,53.422l-2.461-2.461l50.962-50.961l-10.254-10.254L386.904,171.599z M381.794,176.708l7.605,7.605
		l-48.33,48.313l-2.443-2.461l45.852-45.852l-5.145-5.145L381.794,176.708z M226.567,240.351l43.306-43.322l2.546,2.546
		l-40.775,40.776l40.793,40.793l-2.529,2.547L226.567,240.351z M267.259,286.339l-2.461,2.461l-48.45-48.449l48.433-48.416
		l2.461,2.461l-45.972,45.955L267.259,286.339z M236.924,240.351l53.252-53.234l53.32,53.234l-53.286,53.286L236.924,240.351z
		 M376.685,181.801l2.512,2.513l-43.22,43.203l-2.478-2.479L376.685,181.801z M315.64,130.788l53.56,53.594l-2.461,2.461
		l-53.577-53.561L315.64,130.788z M310.53,135.897l53.542,53.611l-2.461,2.461l-53.56-53.577L310.53,135.897z M305.42,141.007
		l53.56,53.594l-2.461,2.461l-53.576-53.576L305.42,141.007z M300.327,146.101l53.543,53.594l-2.461,2.461l-53.577-53.577
		L300.327,146.101z M295.218,151.192l53.542,53.594l-2.461,2.461l-53.56-53.559L295.218,151.192z M290.107,156.286l53.56,53.61
		l-2.461,2.444L287.63,158.78L290.107,156.286z M285.015,161.396l53.56,53.594l-2.461,2.461l-53.577-53.576L285.015,161.396z
		 M279.922,166.488l53.542,53.594l-2.461,2.461l-53.576-53.56L279.922,166.488z M274.795,171.599l12.8,12.8l-2.461,2.461l-12.8-12.8
		L274.795,171.599z M269.702,176.708l12.783,12.801l-2.443,2.461l-12.801-12.801L269.702,176.708z M264.593,181.801l12.8,12.8
		l-2.495,2.496l-12.817-12.783L264.593,181.801z M173.521,130.788l53.56,53.61l-2.461,2.461l-53.56-53.577L173.521,130.788z
		 M168.428,135.897l53.542,53.611l-2.461,2.461l-53.576-53.577L168.428,135.897z M163.317,141.007l53.543,53.594l-2.461,2.461
		l-53.56-53.576L163.317,141.007z M158.208,146.101l53.56,53.594l-2.461,2.461l-53.577-53.577L158.208,146.101z M153.115,151.192
		l53.542,53.611l-2.461,2.443l-53.576-53.559L153.115,151.192z M148.005,156.303l53.543,53.594l-2.461,2.461l-53.56-53.577
		L148.005,156.303z M142.896,161.396l53.56,53.594l-2.461,2.461l-53.56-53.576L142.896,161.396z M137.803,166.488l53.56,53.61
		l-2.461,2.444l-53.594-53.56L137.803,166.488z M132.71,171.599l53.525,53.594l-2.443,2.461l-53.577-53.577L132.71,171.599z
		 M127.601,176.69l53.542,53.594l-2.461,2.461l-53.56-53.576L127.601,176.69z M122.49,181.784l53.56,53.594l-2.461,2.461
		l-53.576-53.561L122.49,181.784z M170.974,240.453l-2.409,2.409l-2.513-2.512l2.41-2.41L170.974,240.453z M84.448,240.351
		l43.203-43.186l2.461,2.443L89.37,240.351l40.861,40.879l-2.461,2.461L84.448,240.351z M125.122,286.322l-2.461,2.461
		l-48.416-48.433l48.297-48.296l2.461,2.461l-45.836,45.835L125.122,286.322z M94.651,240.351l38.093-38.094l2.461,2.461
		l-35.649,35.633l35.786,35.77l-2.461,2.461L94.651,240.351z M104.854,240.368l33.001-33.018l2.461,2.461l-30.54,30.539
		l30.659,30.676l-2.461,2.461L104.854,240.368z M115.039,240.368l27.925-27.926l2.461,2.461l-25.464,25.447l25.566,25.566
		l-2.461,2.461L115.039,240.368z M125.259,240.351l22.798-22.798l2.461,2.461l-20.337,20.337l20.439,20.457l-2.461,2.461
		L125.259,240.351z M135.444,240.368l17.705-17.723l2.461,2.461l-15.244,15.244l15.347,15.363l-2.461,2.461L135.444,240.368z
		 M145.664,240.368l12.612-12.613l2.461,2.461l-10.168,10.135l10.254,10.254l-2.461,2.461L145.664,240.368z M155.85,240.351
		l7.52-7.502l2.461,2.461l-5.059,5.041l5.144,5.161l-2.443,2.461L155.85,240.351z M117.534,293.944l-53.662-53.594l53.508-53.457
		l2.513,2.529l-50.928,50.928l51.064,51.082L117.534,293.944z M120.166,296.576l53.577-53.577l2.461,2.461l-53.543,53.611
		L120.166,296.576z M125.293,301.687l53.56-53.577l2.461,2.461l-53.543,53.594L125.293,301.687z M130.386,306.796l53.56-53.576
		l2.478,2.461l-53.542,53.594L130.386,306.796z M135.479,311.889l53.577-53.577l2.461,2.461l-53.543,53.594L135.479,311.889z
		 M140.589,316.999l53.576-53.577l2.461,2.461l-53.56,53.594L140.589,316.999z M145.698,322.091l53.56-53.576l2.461,2.461
		l-53.56,53.594L145.698,322.091z M150.791,327.185l53.56-53.577l2.461,2.461l-53.543,53.61L150.791,327.185z M155.884,332.294
		l53.576-53.576l2.461,2.461l-53.542,53.594L155.884,332.294z M160.977,337.387l53.594-53.577l2.461,2.461l-53.56,53.611
		L160.977,337.387z M166.104,342.497l53.56-53.577l2.461,2.461l-53.56,53.594L166.104,342.497z M173.675,350.067l-2.479-2.479
		l53.56-53.576l2.461,2.461L173.675,350.067z M202.744,350.819c-8.203,0-16.406,0-24.609,0
		c18.081-18.064,36.162-36.145,54.226-54.209c-18.713-18.713-37.409-37.41-56.105-56.123c18.696-18.696,37.393-37.393,56.105-56.105
		c-18.115-18.133-36.247-36.266-54.362-54.397c8.255,0,16.509,0,24.746,0c18.132,18.115,36.265,36.214,54.38,54.329
		c-18.27,18.269-36.555,36.537-54.842,54.807c-0.324,0.324-0.512,0.77-0.512,1.248c0,0.461,0.188,0.905,0.512,1.23
		c18.287,18.285,36.572,36.572,54.859,54.857C239.009,314.571,220.876,332.704,202.744,350.819z M205.991,240.368l53.628-53.577
		l2.513,2.513l-51.048,51.047l51.064,51.082l-2.529,2.546L205.991,240.368z M262.08,296.405l12.817-12.801l2.495,2.513l-12.8,12.8
		L262.08,296.405z M267.241,301.55l12.783-12.801l2.461,2.461l-12.783,12.801L267.241,301.55z M272.334,306.659l12.8-12.801
		l2.461,2.461l-12.8,12.801L272.334,306.659z M277.427,311.735l53.576-53.561l2.461,2.444l-53.542,53.61L277.427,311.735z
		 M282.536,316.845l53.577-53.576l2.461,2.461l-53.56,53.594L282.536,316.845z M287.63,321.938l53.576-53.577l2.461,2.461
		l-53.56,53.594L287.63,321.938z M292.739,327.03l53.56-53.576l2.461,2.478l-53.542,53.594L292.739,327.03z M297.832,332.14
		l53.577-53.576l2.461,2.461l-53.543,53.594L297.832,332.14z M302.942,337.233l53.576-53.577l2.461,2.461l-53.56,53.594
		L302.942,337.233z M308.052,342.325l53.56-53.576l2.461,2.461l-53.542,53.594L308.052,342.325z M315.64,349.931l-2.495-2.495
		l53.594-53.577l2.461,2.479L315.64,349.931z M376.685,298.917l-43.186-43.254l2.478-2.479l43.22,43.221L376.685,298.917z
		 M379.333,301.55l5.145-5.145l-45.852-45.852l2.443-2.461l48.33,48.313l-7.605,7.605L379.333,301.55z M384.443,306.659
		l10.254-10.254l-50.962-50.962l2.461-2.461l53.389,53.423l-12.681,12.715L384.443,306.659z M389.536,311.752l15.347-15.347
		l-56.055-56.055l56.038-56.037l-15.296-15.313l2.461-2.461l17.739,17.773l-56.021,56.037l56.021,56.072l-17.773,17.79
		L389.536,311.752z M394.629,316.862l20.439-20.423l-56.038-56.089l56.038-56.037l-20.405-20.406l2.461-2.461l22.866,22.867
		l-56.038,56.037l56.038,56.072l-22.9,22.9L394.629,316.862z M399.722,321.954l25.532-25.531h4.922l-27.993,27.992L399.722,321.954z
		 M404.814,327.064l30.642-30.642h4.939l-33.12,33.103L404.814,327.064z M409.925,332.175l35.752-35.752h4.922l-38.213,38.213
		L409.925,332.175z M415.017,337.267l40.862-40.861l-56.055-56.055l56.055-56.037l-40.811-40.811l2.461-2.461l43.255,43.271
		l-56.038,56.037l56.055,56.055l-43.323,43.322L415.017,337.267z M420.127,342.377l45.972-45.972l-56.055-56.055l56.021-56.037
		l-45.903-45.904l2.461-2.461l48.364,48.365l-56.021,56.037l56.037,56.055l-48.415,48.433L420.127,342.377z M427.749,349.999
		l-2.529-2.529l51.064-51.064l-56.055-56.055l56.037-56.037L425.271,133.3l2.513-2.512l53.423,53.525l-56.055,56.037l56.055,56.055
		L427.749,349.999z M457.075,350.819H432.21l54.26-54.414l-56.037-56.055l56.037-56.037l-54.209-54.329h24.78l54.243,54.226
		l-56.157,56.141l56.191,56.191L457.075,350.819z M465.483,235.31l2.461-2.461l7.52,7.502l-7.622,7.622l-2.461-2.461l5.161-5.161
		L465.483,235.31z M480.728,240.351l-10.151-10.135l2.461-2.461l12.612,12.613l-12.697,12.697l-2.479-2.461L480.728,240.351z
		 M490.947,240.351l-15.261-15.244l2.478-2.461l17.705,17.723l-17.825,17.807l-2.443-2.461L490.947,240.351z M501.133,240.351
		l-20.337-20.337l2.461-2.461l22.798,22.798l-22.9,22.918l-2.461-2.461L501.133,240.351z M511.353,240.351l-25.464-25.447
		l2.461-2.461l27.925,27.926l-28.027,28.01l-2.461-2.461L511.353,240.351z M521.538,240.351l-30.539-30.539l2.461-2.461l33,33.018
		l-33.12,33.119l-2.461-2.461L521.538,240.351z M531.741,240.351l-35.633-35.633l2.461-2.461l38.094,38.094l-38.23,38.23
		l-2.461-2.461L531.741,240.351z M541.943,240.351l-40.742-40.742l2.461-2.443l43.203,43.186l-43.34,43.34l-2.461-2.461
		L541.943,240.351z M552.146,240.351l-45.834-45.835l2.461-2.461l48.295,48.296l-48.432,48.433l-2.444-2.461L552.146,240.351z
		 M465.261,240.351l-2.512,2.512l-2.41-2.409l2.513-2.513L465.261,240.351z M513.779,293.944l-2.495-2.512l51.064-51.082
		l-50.928-50.928l2.512-2.529l53.509,53.457L513.779,293.944z"/>
</g>
</svg>
